<?xml version="1.0" encoding="utf-8"?>
<!-- Generator: Adobe Illustrator 24.1.1, SVG Export Plug-In . SVG Version: 6.00 Build 0)  -->
<svg version="1.1" id="Capa_1" xmlns="http://www.w3.org/2000/svg" xmlns:xlink="http://www.w3.org/1999/xlink" x="0px" y="0px"
	 viewBox="0 0 370 370" style="enable-background:new 0 0 370 370;" xml:space="preserve">
<style type="text/css">
	.st0{fill:none;stroke:#5CE1E6;stroke-width:12;stroke-miterlimit:10;}
</style>
<g>
	<g id="Guides_For_Artboard_19_">
	</g>
	<g id="Artwork_18_">
	</g>
	<g id="Layer_2_18_">
		<g>
			<path class="st0" d="M302.7,123.7h-64v-66c0-23-18-41.6-40.3-41.6h-23.2h-3.7c-22.3,0-40.3,18.6-40.3,41.6v66H67.2
				c-22.2,0-40.3,18.6-40.3,41.6v27.9c0,22.9,18,41.6,40.3,41.6h64v66c0,23,18,41.6,40.3,41.6h3.7h23.2c22.3,0,40.3-18.6,40.3-41.6
				v-66h64c22.3,0,40.3-18.6,40.3-41.6v-27.9C343,142.3,325,123.7,302.7,123.7z M237.4,173.1c-2.4,15.2-20.1,32.4-34.4,46.3
				c0,0-7.1,7.3-9.2,9.3c-1.6,1.4-5.1,4.3-8.9,4.3c-3.8,0-7.3-2.8-8.9-4.3c-2.1-1.9-9.2-9.3-9.2-9.3c-14.3-13.8-32-30.9-34.4-46.3
				c-1.7-10.8,0-19.7,5-26.4c5-6.8,12.7-10.8,23.4-11.9c1-0.1,2-0.2,2.9-0.2c7.6,0,15.3,2.9,21.1,7.8c5.9-4.9,13.6-7.8,21.1-7.8
				c0.9,0,1.9,0.1,2.9,0.2c10.8,1.1,18.4,5.1,23.4,11.9C237.4,153.4,239.1,162.3,237.4,173.1z"/>
		</g>
	</g>
</g>
</svg>
