<?xml version="1.0" encoding="utf-8"?>
<!-- Generator: Adobe Illustrator 24.1.1, SVG Export Plug-In . SVG Version: 6.00 Build 0)  -->
<svg version="1.1" id="Capa_1" xmlns="http://www.w3.org/2000/svg" xmlns:xlink="http://www.w3.org/1999/xlink" x="0px" y="0px"
	 viewBox="0 0 512 512" style="enable-background:new 0 0 512 512;" xml:space="preserve">
<style type="text/css">
	.st0{fill:#5CE0E5;}
	.st1{fill:#FCFCFC;}
	.st2{fill:#5BE0E5;}
</style>
<g>
	<path class="st0" d="M482.8,343.1c0-0.9,0-1.9,0.1-2.8c0.2-0.5,0.1-0.9,0.1-1.4c0-48,0-95.9,0-143.9c0-0.5,0.1-1-0.1-1.4
		c-0.2-3.4-1.5-6.5-3.7-9c-2.6-2.9-5.8-4.7-9.7-5.2c-1.2-0.2-2.5-0.2-3.7,0c-5,0.5-8.7,2.9-11.4,7.1c-1.1,1.8-2,3.7-2,5.8
		c-0.3,0.4,0,0.9-0.2,1.3c0,0.6,0,1.1,0,1.7c0,37.7,0,75.5,0,113.2c0,1.2,0,2.3,0,3.5c-0.3,0.6,0,1.2-0.2,1.8c0,0.4,0,0.9-0.1,1.3
		c-0.3,0.4,0,0.9-0.2,1.3c-0.7,4.3-1.5,8.5-3,12.6c-2.7,7.4-6.5,14.2-11.7,20.1c-3.3,3.8-6.8,7.3-10.2,11c-5.7,6-11.3,12-17,18
		c-4,4.2-8,8.5-11.9,12.7c-2.3,2.4-4.6,4.9-6.9,7.4c-1.1,1.1-2.3,1.9-3.8,2.2c-0.6,0.1-1.2,0.1-1.8,0c-2.4-0.2-4-1.5-4.9-3.7
		c-1.1-2.7-0.6-5.2,1.4-7.2c2.1-2.1,4.1-4.4,6.2-6.5c3.6-3.7,7-7.6,10.6-11.4c3.2-3.3,6.3-6.7,9.5-10c2.7-2.8,5.3-5.6,7.9-8.4
		c2.7-2.9,5.4-5.8,8.1-8.6c2.2-2.3,4.3-4.7,5.5-7.8c1.7-4.7,1.6-9.3-0.4-13.9c-2-4.7-5.4-7.9-10.2-9.7c-1.1-0.4-2.3-0.6-3.5-0.8
		c-0.4-0.3-0.9,0-1.3-0.2c-0.5,0-1.1,0-1.6,0c-0.5,0.2-1.1-0.1-1.6,0.2c-2.6,0.2-4.9,1.2-7.1,2.6c-11.5,7.7-23,15.3-34.4,23.1
		c-5.4,3.7-10.4,7.9-15.1,12.5c-6.7,6.5-12.6,13.6-17.6,21.5c-5.1,8-9.2,16.5-12.4,25.4c-2.6,7.3-4.2,14.8-5.7,22.4
		c-2.1,10.3-4.3,20.6-6.5,30.9c-2.2,10.7-4.5,21.4-6.7,32.1c-0.2,1-0.4,1.9-0.7,2.9c-0.8,2.3-2.5,3.7-4.8,4.2
		c-0.8,0.1-1.5,0.1-2.3,0c-3.7-0.3-5.8-4.2-5.1-7.6c1.4-6.5,2.6-13,4-19.4c0.9-4.1,1.9-8.2,2.7-12.3c0.8-4.4,1.8-8.7,2.7-13.1
		c0.9-4.3,1.8-8.5,2.7-12.8c0.9-4.3,1.8-8.6,2.7-13c1.2-6.4,3-12.6,5.1-18.7c2.3-6.8,5.3-13.4,8.7-19.7c3.7-6.7,7.9-13.1,12.7-19.1
		c4-4.9,8.1-9.7,12.7-14c4.3-4,8.9-7.8,13.7-11.3c6-4.3,12.3-8.2,18.4-12.4c6.1-4.2,12.2-8.2,18.3-12.3c3.6-2.4,7.6-3.7,11.8-4.2
		c0.8-0.1,1.6-0.2,2.4-0.3c1.2-0.1,2.4-0.1,3.6,0c8.8,0.7,15.9,4.7,21.6,11.4c0.7,0.8,1.4,1.5,2.2,2.1c0.3,0,0.4-0.1,0.4-0.4
		c0-0.4,0-0.9,0-1.3c0-38.6,0-77.3,0-115.9c0-0.5-0.1-1,0.1-1.5c0.1-6.2,2.1-11.8,6-16.7c4.2-5.3,9.6-8.7,16.2-10
		c1.5-0.3,3.1-0.4,4.6-0.6c0.9-0.1,1.7-0.1,2.6,0c7.7,0.6,14.2,3.6,19.4,9.3c3.6,3.9,5.9,8.6,6.8,13.9c0.1,0.4,0.2,0.8,0.3,1.2
		c0.2,0.4-0.1,0.9,0.2,1.3c0,1.5,0,3,0,4.5c0,47.3,0,94.5,0,141.8c0,1.2,0,2.4,0,3.6c-0.3,0.8,0,1.6-0.2,2.3c0,0.5,0,1-0.1,1.5
		c-0.3,0.4,0,0.9-0.2,1.3c-1.3,10.7-4.2,21-9.2,30.6c-3.1,6.1-7.1,11.5-11,17.1c-4.5,6.4-9.1,12.7-13.6,19.1
		c-7.9,11-15.7,22.1-23.6,33.1c-8.3,11.7-16.7,23.4-25,35.1c-1,1.4-1.9,2.7-2.9,4.1c-1,1.6-2.4,2.7-4.3,3.1c-0.9,0.1-1.7,0.1-2.6,0
		c-2.6-0.2-4.7-2.7-5-5c-0.1-0.8-0.1-1.5,0-2.3c0.1-1.8,1.4-3.1,2.4-4.5c3.4-4.9,6.9-9.7,10.4-14.6c7.1-10,14.2-20,21.3-30
		c4.6-6.4,9.1-12.8,13.7-19.2c7.1-10,14.1-20.1,21.3-30c3.5-4.8,6.7-9.9,9.2-15.3c2.4-5.3,4.1-10.8,5.2-16.5c0.5-2.5,0.8-4.9,1-7.4
		C482.9,344.4,482.6,343.7,482.8,343.1z"/>
	<path class="st0" d="M111.4,299.5c6.6,0.4,12.2,3.2,17.6,6.9c7.4,5.1,15,10.1,22.4,15.1c5.5,3.7,11.2,7.3,16.4,11.6
		c5.9,4.8,11.4,10,16.4,15.7c5.9,6.7,11.1,13.9,15.6,21.7c3.7,6.5,6.9,13.2,9.5,20.3c3.4,9,5.4,18.4,7.3,27.9c1.9,9.5,4,19,6,28.5
		c2.3,11,4.6,22.1,6.9,33.2c0.1,0.7,0.4,1.4,0.6,2.1c0.1,0.8,0.1,1.5,0,2.3c-1.1,4.2-4.2,5.4-7.1,5.2c-2.5-0.2-4.8-2.3-5.3-4.8
		c-1.2-6-2.6-12-3.8-18.1c-1.1-5.1-2.1-10.2-3.2-15.3c-1.4-6.6-2.7-13.1-4.1-19.7c-1.6-7.7-3.2-15.4-4.9-23c-1.8-8-4.6-15.6-8-23
		c-3.2-6.8-7-13.2-11.3-19.4c-9.1-13-20.7-23.4-33.9-32c-9.6-6.3-19.1-12.8-28.7-19.2c-7.1-4.8-15.1-4.4-21.6,1.2
		c-3.5,3.1-5.4,7.1-5.8,11.8c-0.5,6,1.5,11,5.7,15.3c7.5,7.9,14.9,15.8,22.4,23.7c6.8,7.2,13.6,14.5,20.4,21.7
		c1.3,1.3,2.4,2.7,2.4,4.7c0.1,2.8-1.2,5-3.7,6.1c-2.3,1.1-5.1,0.6-7-1.4c-3-3.1-5.9-6.2-8.8-9.3c-3.4-3.6-6.8-7.3-10.2-11
		c-8.6-9.1-17.2-18.1-25.7-27.3c-8.7-9.5-14.2-20.6-16.1-33.4c-0.4-2.8-0.6-5.6-0.6-8.5c0-37.9,0-75.9,0-113.8c0-8-5-14.1-12.8-15.8
		c-8.4-1.7-16.8,4.3-18,12.8c-0.1,1-0.2,2.1-0.2,3.1c0,47.7,0,95.4,0,143.1c0,16,4.9,30.6,14.3,43.6c5.4,7.5,10.7,15,16,22.6
		c1.7,2.5,1.7,5.1,0,7.3c-1.6,2.2-4.4,3.1-7.2,2.2c-1.3-0.4-2.4-1.3-3.1-2.4c-6.3-9-12.9-17.7-18.9-26.9
		c-6.6-10.2-10.8-21.3-12.6-33.4c-0.7-4.7-1-9.5-1-14.3c0-47.5,0-95,0-142.5c0-13.9,9.6-25.6,23.3-27.9c9.6-1.6,18,1.2,24.8,8.3
		c4.3,4.5,6.7,9.9,7.6,16c0.2,0.4-0.1,0.9,0.2,1.3c0,9.7,0,19.4,0,29.1c0,30,0,60,0,90c0,0.5,0,0.9,0,1.7c0.8-0.8,1.6-1.4,2.1-2.1
		c4.5-5.6,10.1-9.4,17.1-11c1.7-0.4,3.4-0.6,5.1-0.8C109,299.4,110.2,299.4,111.4,299.5z"/>
	<path class="st0" d="M105.7,457.8c1.9,0.5,3.3,1.5,4.4,3.1c4.4,6.3,8.9,12.6,13.3,18.9c2.8,4.1,1.1,8.8-3.5,10
		c-0.9,0.1-1.7,0.1-2.6,0c-1.8-0.3-3.1-1.2-4.1-2.7c-4.5-6.4-9-12.7-13.5-19c-2.9-4-0.8-9.3,3.7-10.2
		C104.2,457.7,104.9,457.7,105.7,457.8z"/>
	<path class="st0" d="M220,61.6c-1.6-0.1-2.7-0.8-3.8-1.9c-3.2-3.3-6.4-6.5-9.5-9.8c-1.9-2-1.8-5.9-0.2-7.9c2.4-2.9,6.7-2.5,8.8-0.5
		c3.3,3.3,6.8,6.5,9.9,10c3.4,3.6,1.3,9.2-3.5,10.1C221.2,61.7,220.6,61.7,220,61.6z"/>
	<path class="st0" d="M296,54.8c0.1-1.6,1-2.9,2.1-4c2.9-2.9,5.8-5.8,8.7-8.7c2.4-2.4,5.6-2.7,8.2-0.9c3,2,3.6,6.3,1.1,8.9
		c-3.2,3.4-6.5,6.6-9.9,9.9c-1.6,1.5-3.6,2.1-5.7,1.6c-2.6-0.6-4.1-2.4-4.5-5C295.9,56,295.9,55.4,296,54.8z"/>
	<path class="st0" d="M267.4,43.1c-1.3,3.5-3.4,5.1-6.5,4.9c-3.2-0.1-5.5-3.3-5.5-5.6c0.1-4.6,0.1-9.2,0-13.8
		c-0.1-3.4,1.8-5.9,5.2-6.5c0.6-0.1,1.2-0.1,1.8,0c2.6,0.6,4.2,2.2,5,4.7c0.2,3.6,0,7.1,0.1,10.7C267.5,39.4,267.6,41.3,267.4,43.1z
		"/>
	<path class="st0" d="M260.9,308.2c-4.9-0.2-7.1-6-4.9-9.6c1-1.7,2.7-2.6,4.6-2.9c0.6-0.1,1.2-0.1,1.8,0c2.8,0.6,4.5,2.3,5.3,5
		c0.1,0.8,0.1,1.7,0,2.5c-0.8,2.8-2.7,4.4-5.5,5C261.7,308.3,261.3,308.3,260.9,308.2z"/>
	<path class="st0" d="M85.6,430.9c3.5,0,6.2,2.8,6.2,6.4c0,3.4-2.9,6.1-6.4,6.1c-3.3,0-6.1-3-6.1-6.4
		C79.3,433.4,82,430.8,85.6,430.9z"/>
	<path class="st1" d="M267.4,43.1"/>
	<path class="st1" d="M267.4,26.9"/>
	<path class="st1" d="M259.3,71.9"/>
	<path class="st1" d="M263.7,71.8"/>
	<path class="st1" d="M267.7,303.2"/>
	<path class="st1" d="M267.7,300.6"/>
	<path class="st1" d="M398.1,482.5c0,0.8,0,1.5,0,2.3C397.8,484,397.8,483.2,398.1,482.5z"/>
	<path class="st1" d="M260.6,295.7"/>
	<path class="st1" d="M296,54.8"/>
	<path class="st1" d="M385.2,400.4c0.6,0,1.2,0,1.8,0C386.4,400.7,385.8,400.7,385.2,400.4z"/>
	<path class="st1" d="M221.7,61.6"/>
	<path class="st1" d="M336.8,95.5"/>
	<path class="st1" d="M340.4,95.5"/>
	<path class="st1" d="M260.6,22.1"/>
	<path class="st1" d="M257.3,71.9"/>
	<path class="st1" d="M261.6,266.4c0.4-0.3,0.9-0.2,1.3-0.2C262.5,266.6,262.1,266.4,261.6,266.4z"/>
	<path class="st1" d="M265.8,71.9"/>
	<path class="st1" d="M180.6,95.7c-0.4,0.3-0.9,0.2-1.3,0.2C179.7,95.6,180.2,95.8,180.6,95.7z"/>
	<path class="st1" d="M260.9,308.2"/>
	<path class="st2" d="M409.1,234.8c-0.2-1.1-0.4-2.2-0.6-3.3c-1.2-7.5-4.5-14-9.4-19.7c-6.4-7.3-14.6-11.4-24.1-13.4
		c-5.2-1.1-10.3-2.5-15.5-3.8c0,0,0,0,0,0v0c-0.4-2.3-0.4-4.6,0-7c0,0,0,0,0,0c0.3-0.2,0.5-0.4,0.8-0.6c3.6-2.5,6.7-5.6,9.3-9.1
		c4.3-6,6.6-12.8,7.3-20.1c0.1-0.5,0.1-0.9,0.1-1.4c0-7.9,0-15.7,0-23.6c0-0.5,0.1-0.9-0.1-1.4c-1.5-19-16.1-33.8-34.8-35.8
		c-0.6-0.2-1.3,0.1-1.8-0.2c-1.2,0-2.4,0-3.6,0c-0.6,0.3-1.2,0-1.8,0.2c-5,0.6-9.7,1.8-14.2,4.2c-3.4,1.8-6.5,4.1-9.3,6.6
		c-0.7,0.7-1.1,0.7-1.5-0.3c-1-2.5-2.1-5.1-3.4-7.5c-3.5-6.4-8.1-11.9-13.9-16.3c-7.6-5.8-16.1-9.2-25.6-10.3
		c-0.4-0.2-0.9,0.1-1.3-0.2c-0.7,0-1.4,0-2.1-0.1c-1.5-0.1-2.9-0.1-4.4,0c-0.7,0-1.4,0-2.1,0.1c-0.4,0.3-0.9,0-1.3,0.2
		c-4.7,0.6-9.4,1.6-13.8,3.5c-7.7,3.2-14.2,7.9-19.6,14.3c-4.1,4.9-7.1,10.3-9.4,16.2c-0.6,1.5-0.6,1.5-1.8,0.5
		c-0.3-0.3-0.7-0.5-1-0.8c-6.6-6.1-14.5-9.3-23.4-10.1c-1.6-0.1-3.3-0.1-4.9,0c-0.5,0-1,0-1.6,0.1c-0.4,0.3-0.9,0-1.3,0.2
		c-3.7,0.6-7.4,1.5-10.8,3.1c-5,2.3-9.3,5.4-12.9,9.6c-2.2,2.5-4.1,5.3-5.6,8.2c-2.4,4.7-3.8,9.7-3.9,15.1c-0.1,0.5-0.1,0.9-0.1,1.4
		c0,6.6,0,13.3,0,19.9c0,1.4-0.1,2.8,0.1,4.3c0.1,1.4,0.1,2.9,0.4,4.3c1.4,7.7,4.8,14.4,10.1,20.2c1.9,2,4.2,3.6,6.4,5.2
		c0.6,0.5,0.9,0.9,0.9,1.7c-0.1,1.5-0.1,2.9,0,4.4c0.1,1.1-0.3,1.5-1.3,1.7c-5.5,1.3-10.9,2.7-16.4,3.9c-9,2-16.6,6.5-22.6,13.4
		c-5.6,6.4-8.8,14-9.4,22.6c-0.2,0.7,0.1,1.4-0.2,2.1c0,6.4,0,12.7,0,19.1c0,2.7,2.2,5.5,5.1,5.8c0.5,0.1,0.9,0.1,1.4,0.1
		c14.7,0,29.3,0,44,0c0.5,0,0.9-0.1,1.4,0.1c0.2,0.5,0.1,1,0,1.6c-0.2,0.5,0.1,1.1-0.2,1.6c0,0.4,0,0.9,0,1.3c0,11.7,0,23.4,0,35.1
		c0,3,2.3,6.3,5.7,6.4c0.4,0.1,0.8,0.1,1.2,0.1c18.1,0,36.2,0,54.4,0c0.4,0,0.8,0,1.2-0.1c3.1-0.4,4.9-2.3,5.8-5.3
		c0.1-0.7,0.1-1.4,0-2c-0.8-2.9-2.6-4.7-5.5-5.3c-3.5-0.2-7,0-10.5-0.1c-0.9,0-1.8,0.2-2.7-0.1c0-0.5-0.1-1-0.1-1.5
		c0-6.5,0-13,0-19.5c0-0.7-0.1-1.4-0.2-2c-0.6-3.2-3.6-5.4-6.9-5.1c-3.1,0.3-5.6,3-5.6,6.2c0,3.5,0,7.1,0,10.6c0,3.8,0,7.6-0.1,11.4
		c-0.3,0.2-0.7,0.1-1,0.1c-7.3,0-14.7,0-22,0c-0.3,0-0.7,0.1-1-0.1l0,0c-0.2-0.3-0.1-0.7-0.1-1c0-8.6,0-17.2,0-25.7
		c0-0.3-0.1-0.7,0.1-1c0-0.9,0-1.7,0.1-2.6c0.2-0.4-0.1-0.9,0.2-1.3c0.3-4.8,1.8-9.2,3.8-13.5c2.7-5.6,6.6-10.4,11.5-14.3
		c4.1-3.2,8.6-5.6,13.6-7c5.1-1.4,10.2-2.5,15.4-3.8c4.6-1.1,9.2-2.2,13.7-3.4c0.9-0.2,1.3-0.1,1.7,0.8c0.4,1.1,0.9,2.1,1.4,3.2
		c2,4.6,4,9.3,6.1,13.9c1.8,4,3.5,8,5.3,11.9c1.6,3.7,3.2,7.4,4.9,11.1c1.1,2.4,3.2,3.5,5.8,3.6c0.4-0.3,0.9,0,1.3-0.2
		c2.5-0.6,3.9-2.3,4.8-4.6c1.3-3.1,2.7-6.2,4-9.3c2.4-5.5,4.8-11.1,7.3-16.6c1.9-4.4,3.8-8.7,5.7-13.1c0.3-0.6,0.6-0.9,1.4-0.7
		c3,0.8,5.9,1.4,8.9,2.1c4.8,1.2,9.5,2.4,14.4,3.4c4.9,1.1,9.7,2.4,14.1,4.9c7.2,4.1,12.8,9.8,16.7,17.1c2.3,4.4,3.7,9,4.3,14
		c0.3,0.4,0,0.9,0.2,1.3c0,0.7,0,1.4,0.1,2.1c0.2,0.3,0.1,0.6,0.1,0.9c0,8.9,0,17.8,0,26.7c0,0.3,0.1,0.6-0.1,0.9
		c-1.8,0.2-3.5,0.1-5.3,0.1c-6.3,0-12.5,0-18.8-0.1c-0.2-0.4-0.1-0.8-0.1-1.3c0-3.2,0-6.5,0-9.7c0-3.9,0.1-7.8-0.1-11.8
		c-0.6-3.4-3.5-5.4-6-5.5c-3.8-0.2-6.2,2.1-6.6,6.2c-0.1,0.5-0.1,0.9-0.1,1.4c0,6.4,0,12.8,0,19.2c0,1.5,0,1.5-1.4,1.5
		c-4.2,0-8.4-0.1-12.7,0.1c-3,0.2-5.5,3.1-5.5,5.5c-0.1,0.5-0.1,1,0,1.5c0.3,3,2.8,5.4,5.8,5.5c0.3,0.1,0.7,0.1,1,0.1
		c18.6,0,37.1,0,55.7,0c0.3,0,0.7,0.1,1-0.1c3.6-0.6,5.7-3.3,5.7-7.3c0-11.1,0-22.3,0-33.4c-0.3-0.9,0-1.7-0.2-2.6
		c0-0.3,0-0.6-0.1-0.9c-0.2-1.7-0.2-1.7,1.6-1.7c14.4,0,28.9,0,43.3,0c4.5,0,7.1-2.6,7.1-7.1c0-6.2,0-12.3,0-18.5
		C409,236.1,409.3,235.4,409.1,234.8z M314,125.7c3.7-9.5,10.5-15.5,20.6-17.2c13.8-2.2,26.4,6.7,29.4,20.3c0.4,2,0.4,4,0.7,6
		c0.1,0.8-0.4,0.8-1,0.8c-2.9,0-5.9,0-10.1,0c-6.5,0.2-14.2-0.2-21.7-2c-6.1-1.5-11.9-3.8-17.4-6.8
		C314.1,126.5,313.8,126.3,314,125.7z M312.7,140.1c1.9,0.7,3.6,1.4,5.3,2.1c8,3.2,16.3,5.1,25,5.7c6.7,0.4,13.4,0.2,20.1,0.2
		c1.3,0,1.6,0.4,1.5,1.6c-0.1,4,0.2,8-0.8,12c-2.6,10.5-11.3,18.3-22.1,19.6c-14.3,1.7-27-8.2-28.9-22.5c-0.2-1.9-0.1-3.8-0.1-5.7
		C312.7,148.8,312.7,144.5,312.7,140.1z M228.9,102.5c6.3-9.8,15.2-15.8,26.7-17.6c11.1-1.8,21.2,1,30.1,8
		c7.9,6.3,12.5,14.6,14.1,24.7c0.1,0.9,0.4,1.8,0.4,2.7c0.1,0.9,0.5,1.7,0.2,2.7c-3.5-2.1-6.8-4-10.2-6c-3.5-2.1-7-4.1-10.5-6.2
		c-2.9-1.7-6.1-1.1-8.3,1.4c-7.1,8.3-16.1,13.2-26.9,14.8c-1.6,0.2-3.2,0.3-4.8,0.3c-5.2,0-10.4,0-15.7,0c-0.7,0-1.1,0-1.1-0.9
		C222.6,117.9,224.2,109.8,228.9,102.5z M180.4,108.5c11.6-2,23.4,4.5,28.1,15.6c0.9,2.2,0.9,2.2-1.2,3.3c-9,4.7-18.6,7.4-28.8,8
		c-3.4,0.2-6.8,0.1-9.6,0.2c-3.5,0-6.4,0-9.3,0c-0.8,0-1.1-0.2-1.1-1.1C158.5,121.5,167.6,110.7,180.4,108.5z M159.1,160.4
		c-0.8-3.9-0.4-7.7-0.5-11.6c0-0.8,0.5-0.7,1-0.7c3.2,0,6.4,0,10.9,0c7.1,0.2,15.4-0.3,23.7-2.4c5.1-1.3,10-3,14.8-5.1
		c1.6-0.7,1.6-0.7,1.6,1c0,4.4,0,8.9,0,13.3c-0.1,13.6-9.5,24.2-22.3,26.1C174.5,183.1,161.8,174,159.1,160.4z M223.1,212.1
		c-3.8,0.9-7.5,1.9-11.3,2.8c-6,1.4-12,3-17.4,5.9c-11.4,6.1-19.7,15.2-24.6,27.1c-0.6,1.4-1.2,1.9-2.8,1.9c-13-0.1-26.1-0.1-39.1,0
		c-1.2,0-1.4-0.3-1.4-1.4c0.1-3.4,0-6.7,0.1-10.1c0.3-13.2,9.1-24,21.9-27c7.6-1.8,15.2-3.6,22.9-5.5c3.2-0.8,5.1-3.2,5.1-6.4
		c0-1.7,0-3.5,0-5.2c0-0.8,0.2-1,1-0.9c2.5,0.2,5,0.6,7.5,0.6c2.2,0,4.3-0.3,6.4-0.7c1-0.2,1.5-0.1,1.4,1.1c-0.1,1.6,0,3.2,0,4.8
		c0,3.6,1.8,5.8,5.3,6.6c8.4,2,16.7,4,25.1,6C223.1,211.9,223.1,212,223.1,212.1z M235.2,202.4c0,0.7-0.2,0.9-0.8,0.6
		c-8.8-4.2-18.4-5.5-27.6-7.9c-1.3-0.3-1.7-0.8-1.6-2c0.1-0.6,0-1.2,0-1.8c-0.7-2.5,0.6-3.9,2.6-5.3c3-2,5.4-4.7,7.7-7.5
		c1.1-1.4,1.2-1.3,2.1,0.1c2.3,3.6,4.7,7,7.7,10c2.7,2.7,5.7,5.2,9,7.2c0.7,0.5,1.1,1,1,1.9C235.1,199.2,235.1,200.8,235.2,202.4z
		 M275.4,211.8c0,0.8-0.1,1.4-0.4,2.1c-4.3,9.8-8.6,19.7-12.9,29.5c-0.1,0.3-0.3,0.6-0.5,1c-1.3-3-2.6-5.8-3.8-8.7
		c-3.2-7.3-6.4-14.6-9.6-21.9c-0.2-0.5-0.4-1-0.4-1.6c0-3,0-6,0-9.1c0-0.9,0.2-1.1,1.1-0.9c4,1,8,1.6,12.1,1.6
		c4.4,0.1,8.8-0.5,13-1.6c1.2-0.3,1.5,0,1.5,1.2C275.3,206.3,275.3,209.1,275.4,211.8z M270.4,190.2c-17.3,4.3-35.1-4.1-43.2-20
		c-2.7-5.4-4.2-11.1-4.2-17.2c0-4,0-7.9,0-11.9c0-0.9,0.2-1.2,1.2-1.2c4.6,0,9.1,0,13.7,0c9.8,0,19-2.2,27.6-7
		c3.9-2.2,7.6-4.8,10.9-7.9c0.9-0.8,1.5-1,2.7-0.3c6.6,4,13.3,7.9,20,11.7c0.8,0.5,1.2,1,1.2,2c-0.1,2.5,0,5,0,7.5
		c0,4.9,0.3,9.8-0.9,14.7C295.5,176.3,285.9,186.3,270.4,190.2z M289.4,202.8c-0.4,0.2-0.9,0.4-1.5,0.7c0-2.2,0-4.3,0-6.3
		c0-0.6,0.3-0.8,0.7-1.1c7.2-4.5,12.9-10.6,17.3-17.9c0.5-0.8,0.8-1.1,1.5-0.2c2.8,3.6,6,6.9,9.9,9.4c0.5,0.3,0.6,0.7,0.6,1.2
		c0,1.6-0.1,3.1,0,4.7c0.1,1-0.3,1.4-1.3,1.6c-5.6,1.3-11.1,2.6-16.7,4C296.2,199.8,292.7,201.2,289.4,202.8z M396.6,248.8
		c0,1-0.6,0.8-1.2,0.8c-7.5,0-15,0-22.5,0c-5.9,0-11.7,0-17.6,0c-1.1,0-1.5-0.4-1.9-1.3c-5.4-13-14.5-22.6-27.2-28.7
		c-5.1-2.5-10.6-3.7-16-5c-3.4-0.8-6.7-1.6-10.1-2.4c-0.2,0-0.3-0.1-0.7-0.3c8.7-2.1,17.1-4.2,25.5-6.1c3.2-0.7,5.7-3,5.4-6.9
		c-0.1-1.6,0-3.2,0-4.8c0-0.7,0.1-1,1-0.9c2.7,0.3,5.4,0.7,8.1,0.6c2,0,4-0.3,6-0.7c1.1-0.2,1.5,0.1,1.4,1.2c-0.1,1.7,0,3.5,0,5.2
		c0,3.2,2,5.5,5.1,6.3c8.2,1.9,16.4,3.8,24.6,5.9c10.3,2.7,18.5,12.2,19.8,22.7C397,239.3,396.5,244,396.6,248.8z"/>
</g>
</svg>
