<svg id="Layer_1" data-name="Layer 1" xmlns="http://www.w3.org/2000/svg" viewBox="0 0 512 503.71"><defs><style>.cls-1{fill:#5ce1e6;}</style></defs><g id="surface1"><path class="cls-1" d="M404.41,126.68a7.49,7.49,0,0,0,10.32,2.45l40.65-25a7.5,7.5,0,0,0-7.86-12.78l-40.65,25A7.5,7.5,0,0,0,404.41,126.68Z" transform="translate(0 -4)"/><path class="cls-1" d="M505.23,176.51l-59.6-5.79a7.5,7.5,0,1,0-1.45,14.93l59.59,5.79.74,0a7.5,7.5,0,0,0,.72-15Z" transform="translate(0 -4)"/><path class="cls-1" d="M374,74.3a7.61,7.61,0,0,0,2.71.51,7.48,7.48,0,0,0,7-4.78l21.71-55.81a7.5,7.5,0,1,0-14-5.44L369.7,64.59A7.5,7.5,0,0,0,374,74.3Z" transform="translate(0 -4)"/><path class="cls-1" d="M321,33a17.41,17.41,0,0,0-23.93-5.67l-9,5.54a17.4,17.4,0,0,0-5.67,23.94l5.16,8.36-117.93,146-24.91,15.36a7.5,7.5,0,1,0,7.88,12.77l19.61-12.1,38.23,62a30.65,30.65,0,0,0-16,3.35l-.26.14c-.68.35-1.34.72-2,1.13l-22.42,13.9a40.27,40.27,0,0,0-13.24,13.56L151,329.53l-4.07,6.13-.1,0-.18-.08c-.32-.15-.63-.3-.93-.47l-.2-.1c-.33-.2-.65-.42-1-.65l-.19-.15c-.28-.22-.56-.45-.82-.7l-.1-.09a9.61,9.61,0,0,1-.8-.88,1.56,1.56,0,0,1-.16-.2,11.09,11.09,0,0,1-.7-1l-32.41-52.53a10.89,10.89,0,0,1,3.55-15l9.7-6A7.5,7.5,0,1,0,114.71,245l-9.7,6a25.92,25.92,0,0,0-11.34,29l-7.22,4.45a20.61,20.61,0,0,0-6.7,28.32l18.3,29.66a20.46,20.46,0,0,0,12.77,9.22,21.08,21.08,0,0,0,4.78.56,20.42,20.42,0,0,0,10.76-3.07l7.23-4.46a25.8,25.8,0,0,0,4.93,3.53L117.7,379.63,112.79,383a9,9,0,0,0-9.93,1.15L89.93,395a9.11,9.11,0,0,0-10.05.16l-.43.31L6.7,452.89A17.54,17.54,0,0,0,0,466.73v23.36a17.64,17.64,0,0,0,17.62,17.62h119a17.56,17.56,0,0,0,13.74-6.58l9.86-12.28a9.06,9.06,0,0,0,2.2-7l13.28-11.17a8.93,8.93,0,0,0,2.75-4.06l30.61,6.28a7.87,7.87,0,0,0,1.37.15l2.68,0c7.25,0,14.46-.74,22-5.32L266,449.43c.52,0,1,.05,1.55.05a24.31,24.31,0,0,0,12.72-3.6L305,430.73A24.46,24.46,0,0,0,303.34,388a24.78,24.78,0,0,0-.8-24.38,24.51,24.51,0,0,0-15.09-11.09,24.64,24.64,0,0,0-17.33-29,24.69,24.69,0,0,0-2.81-19.14,25.11,25.11,0,0,0-3.27-4.23l148.61-32.35,5.16,8.36a17.4,17.4,0,0,0,23.94,5.67l9-5.53a17.41,17.41,0,0,0,5.67-23.94ZM118.49,336.42a5.58,5.58,0,0,1-7.67-1.81l-18.3-29.67a5.58,5.58,0,0,1,1.81-7.67l6.37-3.93,24.16,39.15Zm20.18,155.31a2.58,2.58,0,0,1-2,1h-119A2.62,2.62,0,0,1,15,490.09V466.73a2.59,2.59,0,0,1,1-2.06l68.23-53.86L145.73,483Zm15.25-22.29L100,406.15l8-6.72,53.55,63.63Zm73.52-14.51c-4.58,2.77-8.88,3.26-16,3.16L173,450.22a7.28,7.28,0,0,0-2.71-.06l-47.17-56.05,4.27-2.92h0l.21-.16c.16-.12.32-.24.47-.37l.21-.2a4.44,4.44,0,0,0,.43-.44l.17-.18a5.73,5.73,0,0,0,.47-.63l0-.05,0,0,0-.06,39.67-59.74c.08-.13.17-.26.24-.39a24.58,24.58,0,0,1,8.28-8.53l22.43-13.9c.41-.26.84-.49,1.26-.71l.58-.27.68-.29.79-.29.42-.14c.33-.1.66-.2,1-.28h0a15.57,15.57,0,0,1,3.65-.44h.08c.36,0,.72,0,1.07,0l.35,0c.31,0,.62.06.94.1l.56.11a14.44,14.44,0,0,1,1.41.34l.54.15.7.26.55.22.69.32.5.26c.23.13.46.25.68.39l.45.29.66.46c.13.1.26.2.38.31s.44.35.65.54a14.06,14.06,0,0,1,2.66,3.18l.55.91,8,13,10,16.38,2.55,4.17a6.36,6.36,0,0,1,.6,1.23,7,7,0,0,1,.21,4.06,7.72,7.72,0,0,1-3.53,4.79l-4.51,2.75h0a7.11,7.11,0,0,1-1,.49l-.21.09a9.57,9.57,0,0,1-1,.33l-.12,0a7.4,7.4,0,0,1-.94.17l-.18,0a6.71,6.71,0,0,1-1,0h-.19a6.8,6.8,0,0,1-1-.13h0a8.89,8.89,0,0,1-1-.3l-.09,0a7.26,7.26,0,0,1-1.94-1.12h0a6.61,6.61,0,0,1-.81-.77l-.07-.08a5.93,5.93,0,0,1-.63-.86L217.55,344a19.78,19.78,0,0,0-12.44-9,20.47,20.47,0,0,0-15.66,2.57A7.52,7.52,0,0,0,186,343c-.08.64-.19,1.27-.3,1.89-.09.45-.19.9-.29,1.34l-.09.45c-.14.57-.28,1.12-.44,1.67,0,0,0,0,0,.06a31.74,31.74,0,0,1-3.54,8h0a35.2,35.2,0,0,1-11.91,11.4,7.5,7.5,0,0,0,7.79,12.82,54.56,54.56,0,0,0,9.72-7.46l31.32,49.39a31.09,31.09,0,0,0,26.06,14.14c.55,0,1.1,0,1.64-.05l.67,1.16a24.72,24.72,0,0,0,3,4Zm6.36-55.14h0c.13.35.27.7.41,1,0,0,0,.09,0,.13q.19.46.42.93l.09.21c.14.29.29.57.44.86l.13.25c.2.37.41.73.63,1.09.38.62.79,1.21,1.21,1.78.15.21.31.41.46.61.28.35.57.69.86,1s.41.48.63.71.33.32.5.49a23.77,23.77,0,0,0,1.9,1.72l.21.16a24.94,24.94,0,0,0,4.14,2.66,24.82,24.82,0,0,0-2.65,8.16,15.94,15.94,0,0,1-12.38-7.19l-34.48-54.38A48.45,48.45,0,0,0,200,349.47a5.42,5.42,0,0,1,1.6.14,4.93,4.93,0,0,1,3.11,2.23l7.48,12.22,0,.05a18.82,18.82,0,0,0,1.18,1.73c.32.41.65.8,1,1.18.11.13.22.28.34.41a1.46,1.46,0,0,1,.05.2c.12.52.25,1,.4,1.55.05.14.09.29.13.44.19.58.38,1.15.61,1.72l.07.16c.21.52.44,1,.68,1.52.07.15.14.29.22.43.28.55.57,1.09.89,1.62a24.6,24.6,0,0,0,15.07,11.09A24.71,24.71,0,0,0,233.8,399.79Zm4.79-89.26,2.52-1.54a9.74,9.74,0,1,1,10.16,16.63l-2.5,1.53-7.41-12.09Zm55.89,90.09a9.39,9.39,0,0,1,5.87,4.27,9.51,9.51,0,0,1-3.15,13.05l-24.77,15.14a9.39,9.39,0,0,1-6.58,1.24l-.39-.07-.21,0a9.44,9.44,0,0,1-7.06-7.34.28.28,0,0,1,0-.09,9.53,9.53,0,0,1,2.51-8.42l.17-.17.34-.31.35-.3.27-.21c.23-.17.45-.32.69-.47h0l4.92-3a24,24,0,0,0,2.55-1.35L289,401A9.38,9.38,0,0,1,294.48,400.62Zm-17.25-32.88a9.75,9.75,0,0,1,9.28,17.12l-4.46,2.72a23.47,23.47,0,0,0-2.57,1.37l-18.85,11.52a9.77,9.77,0,0,1-10.17-1.92h0c-.21-.2-.41-.4-.6-.61l-.15-.18c-.14-.17-.28-.33-.41-.51s-.36-.5-.52-.76-.31-.54-.45-.83l-.12-.27c-.09-.19-.17-.39-.25-.58s-.07-.21-.1-.32-.12-.38-.17-.57a3,3,0,0,1-.08-.32c0-.19-.08-.38-.12-.58l0-.31c0-.2,0-.4-.05-.61a2.83,2.83,0,0,1,0-.29q0-.31,0-.63v-.27c0-.22,0-.43.06-.64l0-.27c0-.19.07-.37.11-.56a9.73,9.73,0,0,1,3.12-5.33l.2-.19.28-.24c.23-.13.47-.25.7-.39l24.34-14.88C276.55,368.2,276.89,368,277.23,367.74Zm-11.66-29.92a9.66,9.66,0,0,1,6,4.4A9.77,9.77,0,0,1,269.26,355c-.25.14-.5.28-.74.43l-18.79,11.48.18-.15c.36-.29.72-.58,1.05-.88s.42-.39.62-.58.61-.6.9-.92.38-.43.57-.65.54-.64.79-1l.52-.71c.23-.34.46-.69.68-1s.31-.49.45-.74.41-.76.6-1.15.25-.48.36-.73c.19-.44.37-.88.54-1.33.08-.22.17-.43.24-.65.23-.67.44-1.35.61-2.05a20,20,0,0,0,.38-2c0-.21,0-.43.08-.64q.07-.69.12-1.38c0-.25,0-.5,0-.75,0-.43,0-.85,0-1.28,0-.25,0-.51,0-.76,0-.43-.08-.86-.13-1.29,0-.24-.06-.47-.1-.71q-.12-.72-.3-1.44c0-.17-.07-.34-.11-.52-.18-.64-.37-1.28-.6-1.91l-.15-.36c-.17-.42-.33-.85-.52-1.26L258.2,339A9.68,9.68,0,0,1,265.57,337.82Zm178.34-75.75a2.36,2.36,0,0,1-1.07,1.48l-9,5.54a2.41,2.41,0,0,1-3.3-.78l-94.46-153.1a7.5,7.5,0,0,0-12.77,7.87l81,131.21L230,292.23l-46.16-74.82L295.93,78.66,305,93.34a7.5,7.5,0,1,0,12.76-7.88L295.19,48.89a2.39,2.39,0,0,1-.3-1.81A2.42,2.42,0,0,1,296,45.59l9-5.53a2.4,2.4,0,0,1,3.3.78L443.62,260.26A2.37,2.37,0,0,1,443.91,262.07Z" transform="translate(0 -4)"/></g></svg>